<svg xmlns="http://www.w3.org/2000/svg" width="320" height="320" viewBox="0 0 320 320" version="1.1"><path d="M 133 8.448 C 60.219 18.958, 7.141 69.528, 3.318 132 L 2.737 141.500 3.905 150.500 C 6.085 167.298, 12.614 185.454, 21.346 199 L 24.891 204.500 20.446 204.805 C 18.001 204.972, 15.980 205.422, 15.955 205.805 C 15.930 206.187, 15.800 210.023, 15.667 214.328 L 15.424 222.157 17.146 223.078 C 18.094 223.585, 20.619 224, 22.758 224 L 26.647 224 27.574 220.261 L 28.500 216.521 30.250 216.187 L 32 215.853 32 226.951 L 32 238.050 29.442 239.022 L 26.885 239.994 27.187 245.497 L 27.488 251 41.744 251 L 56 251 56 245 L 56 239 54.107 239 L 52.214 239 51.607 237.418 C 51.273 236.548, 51 231.342, 51 225.849 L 51 215.861 53.250 216.180 L 55.500 216.500 56 220 L 56.500 223.500 61.500 223.500 L 66.500 223.500 66.500 214.500 L 66.500 205.500 49.714 205.226 L 32.928 204.951 28.593 198.226 C 20.740 186.041, 15.989 175.115, 12.405 161 L 10.500 153.500 10.500 137.500 L 10.500 121.500 12.267 114.227 C 22.710 71.248, 56.116 37.912, 105.369 21.321 L 115.500 17.908 126.683 16.018 C 132.834 14.979, 143.184 13.828, 149.683 13.461 L 161.500 12.793 173 13.908 C 236.841 20.094, 287.807 57.223, 302.408 108.182 L 304.896 116.865 306.070 127.294 L 307.243 137.724 306.048 148.004 L 304.853 158.283 302.360 166.886 C 299.564 176.534, 294.003 188.753, 288.655 197 L 285.088 202.500 288.156 203.427 L 291.225 204.354 293.149 201.927 C 294.208 200.592, 297.757 194.100, 301.037 187.500 L 307 175.500 309.665 165.500 L 312.329 155.500 312.352 137.500 L 312.375 119.500 309.738 109.723 L 307.101 99.945 302.655 90.559 C 286.289 56.010, 256.544 30.313, 216.978 16.541 L 206.639 12.942 194.569 10.396 L 182.500 7.850 162.500 7.463 L 142.500 7.076 133 8.448 M 144.713 30.009 C 143.180 30.470, 138.680 32.569, 134.713 34.673 L 127.500 38.500 113.345 38.228 L 99.191 37.957 93.668 40.023 L 88.146 42.089 84.323 45.926 L 80.500 49.763 74.854 61.132 C 71.749 67.384, 68.025 75.819, 66.580 79.876 L 63.952 87.253 61.919 99.758 C 59.002 117.709, 57.410 122.073, 50.528 131 C 48.196 134.025, 45.548 137.940, 44.644 139.700 L 43 142.901 43 147.975 L 43 153.050 45.004 158.775 L 47.009 164.500 51.644 171.299 C 54.193 175.038, 60.566 182.605, 65.805 188.116 L 75.331 198.134 80.415 200.770 L 85.500 203.405 93 203.372 C 97.125 203.353, 104.325 202.995, 109 202.575 L 117.500 201.812 122.303 204.406 L 127.106 207 129.553 207 L 132 207 132 211.640 L 132 216.280 133.723 217.540 L 135.446 218.800 131.524 228.506 L 127.601 238.212 125.550 238.979 L 123.500 239.746 123.187 236.873 L 122.873 234 120.937 234 L 119 234 118.985 237.750 C 118.976 239.813, 118.550 242.162, 118.038 242.972 L 117.108 244.444 116.632 242.972 C 116.370 242.162, 115.879 239.832, 115.541 237.793 L 114.926 234.087 111.713 231.554 L 108.500 229.022 110.298 229.011 L 112.095 229 114.548 226.354 L 117 223.708 117 218.431 L 117 213.153 114.465 210.141 L 111.930 207.128 106.715 206 L 101.500 204.873 85 205.186 L 68.500 205.500 68.198 210.755 L 67.895 216.010 70.448 216.980 L 73 217.950 73 228 L 73 238.050 70.500 239 L 68 239.950 68 245.475 L 68 251 82 251 L 96 251 96 245.535 L 96 240.070 94 239 L 92 237.930 92 234.965 L 92 232 93.300 232 C 94.015 232, 95.140 232.540, 95.800 233.200 L 97 234.400 97.006 237.950 C 97.009 239.902, 97.467 243.141, 98.024 245.147 L 99.037 248.794 101.483 250.397 L 103.930 252 109.418 252 L 114.906 252 117.596 250.774 L 120.286 249.548 121.604 246.524 L 122.922 243.500 122.961 247.250 L 123 251 132.364 251 L 141.728 251 142.342 246.524 C 143.081 241.128, 142.518 239.369, 139.825 238.665 L 137.789 238.132 138.222 236.816 L 138.655 235.500 142.979 235.185 L 147.302 234.870 148.085 236.137 C 149.145 237.853, 148.287 239, 145.941 239 L 144 239 144 245 L 144 251 158.550 251 L 173.100 251 172.800 245.250 L 172.500 239.500 170.345 239.193 L 168.190 238.886 164.105 228.780 L 160.020 218.674 162.059 217.246 L 164.098 215.818 163.799 210.659 L 163.500 205.500 151.210 205.219 L 138.920 204.938 141.890 202.439 L 144.859 199.941 146.455 195.137 L 148.050 190.333 146.944 185.175 C 146.336 182.339, 145.425 179.762, 144.919 179.450 C 144.414 179.138, 144 178.057, 144 177.048 L 144 175.214 145.591 174.603 C 146.466 174.268, 152.101 173.561, 158.113 173.034 L 169.043 172.074 173.272 170.182 C 175.597 169.142, 178.344 167.339, 179.376 166.177 L 181.252 164.064 185.376 166.465 L 189.500 168.867 195.568 169.542 L 201.637 170.217 207.068 169.099 L 212.500 167.981 217.761 169.991 L 223.021 172 228.145 172 C 230.962 172, 235.120 171.453, 237.384 170.784 L 241.500 169.568 246.539 164.534 L 251.578 159.500 255.667 151 C 257.916 146.325, 260.822 139.350, 262.126 135.500 L 264.495 128.500 264.498 118 L 264.500 107.500 258.116 88.500 L 251.732 69.500 249.316 66.893 L 246.900 64.286 238.700 62.056 C 228.041 59.156, 219.934 55.250, 212.500 49.432 C 209.200 46.849, 205.052 44.120, 203.282 43.368 L 200.064 42 191.282 41.995 L 182.500 41.989 179.854 40.245 C 178.399 39.285, 175.045 36.953, 172.402 35.062 C 169.758 33.172, 165.998 31.054, 164.047 30.356 L 160.500 29.088 154 29.130 C 150.425 29.153, 146.246 29.549, 144.713 30.009 M 149.713 36.135 L 144.926 36.845 137.713 42.282 C 133.746 45.273, 129.713 47.994, 128.750 48.329 L 127 48.937 127 48.028 C 127 47.527, 127.450 46.840, 128 46.500 C 128.550 46.160, 129 45.432, 129 44.882 L 129 43.882 128.022 44.486 C 127.484 44.819, 121.144 45.081, 113.934 45.069 L 100.825 45.046 97.162 46.576 C 95.148 47.418, 92.206 49.320, 90.624 50.803 L 87.747 53.500 85.383 58.500 C 84.083 61.250, 83.015 64.253, 83.010 65.173 C 83.004 66.094, 81.936 68.119, 80.637 69.673 C 79.337 71.228, 77.290 74.438, 76.087 76.807 L 73.901 81.114 72.548 89.807 C 71.803 94.588, 71.135 97.825, 71.064 97 L 70.933 95.500 68.967 97.861 L 67 100.222 67.024 102.361 C 67.037 103.537, 68.160 107.200, 69.519 110.500 C 72.342 117.352, 72.455 117.855, 70.800 116.200 C 68.853 114.253, 68.348 114.715, 65.947 120.631 L 63.662 126.262 58.186 133.881 L 52.710 141.500 52.230 145.704 L 51.750 149.908 53.987 154.204 C 55.218 156.567, 57.788 160.231, 59.698 162.348 L 63.171 166.195 66.089 172.697 C 70.708 182.992, 74.839 187.830, 75.100 183.250 L 75.199 181.500 76 184 L 76.801 186.500 76.916 181.500 L 77.031 176.500 78.098 175 L 79.165 173.500 78.622 178.101 L 78.079 182.702 79.075 186.308 L 80.070 189.914 83.005 192.003 L 85.939 194.093 91.220 195.153 L 96.500 196.213 100.358 194.856 L 104.215 193.500 104.585 188.500 L 104.955 183.500 107.089 181.750 L 109.222 180 111.861 180.076 L 114.500 180.152 111 181.409 L 107.500 182.666 107.193 185.753 L 106.885 188.840 109.913 192.170 L 112.941 195.500 112.971 194.315 C 112.987 193.663, 112.537 191.913, 111.972 190.426 C 110.026 185.308, 111.977 186.700, 114.387 192.149 L 116.801 197.606 121.150 199.412 C 123.543 200.406, 126.528 201.617, 127.784 202.103 L 130.067 202.988 130.655 201.456 L 131.243 199.925 129.624 195.712 C 128.734 193.396, 127.109 190.033, 126.012 188.241 L 124.018 184.982 120.759 182.913 L 117.500 180.845 120 181.541 C 124.012 182.657, 126.041 185.035, 129.570 192.750 L 132.886 200 134.769 200 L 136.651 200 138.826 197.686 L 141 195.371 141 191.723 L 141 188.075 138.876 182.288 L 136.751 176.500 131.081 170.914 L 125.411 165.328 120.455 163.560 L 115.500 161.792 105 161.328 L 94.500 160.863 91.734 159.804 L 88.969 158.744 83.954 152.443 L 78.940 146.141 75.970 144.826 C 72.351 143.224, 72.140 142, 75.483 142 L 77.967 142 78.233 115.750 L 78.500 89.500 79.380 93.764 L 80.260 98.029 81.630 96.892 L 83 95.755 81.348 99.627 L 79.695 103.500 79.343 116 C 79.149 122.875, 79.259 130.633, 79.588 133.239 L 80.185 137.978 82.374 141.239 L 84.564 144.500 89.532 147.227 C 94.843 150.142, 94.198 150.945, 88.468 148.551 L 85 147.102 85 147.877 C 85 149.496, 89.733 152.996, 94.028 154.554 L 98.500 156.175 111 156.692 L 123.500 157.208 126.250 156.129 L 129 155.050 129 153.896 L 129 152.742 124.250 153.314 L 119.500 153.885 115.500 153.058 L 111.500 152.230 118.203 152.115 L 124.906 152 127.295 150.912 L 129.683 149.823 129.250 122.162 L 128.817 94.500 127.486 88.506 C 125.922 81.462, 126.272 80.322, 128.420 85.464 L 129.958 89.144 130.936 88.539 C 131.475 88.207, 132.672 85.237, 133.597 81.940 C 135.969 73.486, 136.521 75.324, 134.542 85.087 C 133.627 89.605, 132.507 96.721, 132.052 100.901 L 131.227 108.500 131.923 126.500 L 132.619 144.500 134.766 148.624 L 136.912 152.748 140.206 154.857 L 143.500 156.966 141.941 156.983 C 141.084 156.992, 139.509 156.339, 138.441 155.532 C 137.374 154.724, 136.093 154.049, 135.595 154.032 L 134.690 154 136.595 156.145 C 137.643 157.325, 140.525 159.222, 143 160.361 L 147.500 162.431 157.675 162.232 L 167.851 162.032 173.171 160.266 L 178.492 158.500 178.847 156.604 L 179.203 154.708 177.547 155.344 C 176.636 155.693, 172.920 156.454, 169.290 157.034 L 162.688 158.088 161.644 157.044 L 160.600 156 166.550 155.998 L 172.500 155.997 176 154.248 L 179.500 152.500 180.754 147.500 L 182.007 142.500 182.254 116.500 L 182.500 90.500 181.732 86 L 180.964 81.500 182.334 85.606 C 183.088 87.864, 184.081 90.323, 184.543 91.069 L 185.382 92.427 186.646 89.463 C 188.324 85.530, 188.309 87.482, 186.602 95.188 L 185.205 101.500 184.431 120.500 C 184.005 130.950, 183.621 141.825, 183.578 144.667 L 183.500 149.834 185.843 153.002 L 188.185 156.169 186.093 155.050 L 184 153.930 184 154.819 C 184 155.308, 185.070 156.862, 186.377 158.273 L 188.755 160.838 192.627 161.915 L 196.500 162.993 206 161.409 L 215.500 159.825 217 158.365 L 218.500 156.905 211.500 157.417 L 204.500 157.929 209.797 156.966 C 212.710 156.436, 216.418 155.318, 218.037 154.481 L 220.980 152.959 223.091 148.822 L 225.201 144.686 226.177 130.093 L 227.154 115.500 226.827 102.724 L 226.500 89.949 227.166 91.724 C 227.533 92.701, 228.164 94.400, 228.569 95.500 L 229.306 97.500 229.081 116 L 228.857 134.500 227.342 140.500 C 226.509 143.800, 224.912 148.634, 223.794 151.243 L 221.760 155.985 223.403 158.493 L 225.046 161 224.082 161 C 223.552 161, 222.840 160.550, 222.500 160 C 222.160 159.450, 221.459 159, 220.941 159 C 219.330 159, 219.908 161.607, 221.922 163.430 L 223.845 165.169 227.918 165.716 L 231.992 166.262 236.535 164.990 L 241.078 163.718 244.789 159.499 L 248.500 155.280 253.182 143.890 C 262.268 121.787, 262.356 115.517, 253.864 95.301 L 250 86.102 250 81.598 L 250 77.094 248.915 74.712 L 247.830 72.331 245.096 70.716 L 242.362 69.101 234.820 68.165 L 227.278 67.228 224.428 65.364 L 221.577 63.500 222.348 64.750 L 223.118 66 222.309 65.985 C 221.864 65.977, 217.796 62.623, 213.268 58.530 C 208.741 54.438, 204.081 50.579, 202.913 49.954 L 200.790 48.817 191.631 48.487 C 186.594 48.305, 181.129 47.866, 179.486 47.510 L 176.500 46.864 178.427 48.422 C 179.487 49.278, 180.101 50.232, 179.792 50.541 C 179.483 50.850, 175.822 47.943, 171.657 44.081 L 164.083 37.059 161.792 36.590 C 156.694 35.547, 154.284 35.456, 149.713 36.135 M 174.618 206.554 C 174.278 207.439, 174 209.936, 174 212.103 L 174 216.043 176.500 217.182 L 179 218.321 179 228.192 L 179 238.063 177.250 238.708 C 174.162 239.848, 172.899 244.967, 174.607 249.418 L 175.214 251 189.107 251 L 203 251 203 245.070 L 203 239.139 200.750 238.820 L 198.500 238.500 198.214 228.796 L 197.929 219.093 200.512 217.400 L 203.094 215.708 202.797 210.604 L 202.500 205.500 188.868 205.223 L 175.235 204.945 174.618 206.554 M 205.667 205.667 C 203.429 207.905, 205.270 216.192, 208.250 217.292 L 210 217.937 210 227.993 L 210 238.050 207.448 239.020 L 204.895 239.990 205.198 245.245 L 205.500 250.500 216.250 250.784 L 227 251.068 227 245.509 L 227 239.950 224.500 239 L 222 238.050 222.026 232.275 L 222.052 226.500 227.564 235 C 230.595 239.675, 234.050 245.203, 235.241 247.284 L 237.406 251.068 246.953 250.784 L 256.500 250.500 256.775 234.250 L 257.050 218 258.506 218 L 259.962 218 260.551 215.655 C 260.874 214.365, 260.995 211.552, 260.820 209.405 L 260.500 205.500 250.750 205.214 L 241 204.928 241 210.896 L 241 216.865 243 217.500 L 245 218.135 245 223.067 C 245 229.517, 245.213 229.680, 237.433 217.250 C 233.732 211.338, 230.209 206.169, 229.602 205.765 L 228.500 205.031 217.417 205.015 C 211.321 205.007, 206.033 205.300, 205.667 205.667 M 92 221.500 L 92 226 94.465 226 L 96.930 226 97.961 224.072 L 98.993 222.145 98.319 220.322 C 97.491 218.081, 96.046 217.035, 93.750 217.015 L 92 217 92 221.500 M 38.861 256.912 L 36.500 258.823 36.500 263.492 L 36.500 268.161 38.441 269.581 L 40.382 271 43.634 271 L 46.887 271 48.243 269.064 L 49.599 267.128 50.808 269.064 L 52.017 271 55.473 271 L 58.930 271 59.793 269.250 C 60.905 266.996, 60.441 262.236, 58.931 260.417 L 57.755 259 55.449 259 L 53.143 259 51.571 260.571 C 50.707 261.436, 50 262.772, 50 263.540 L 50 264.937 48.580 264.392 L 47.159 263.847 46.830 266.163 L 46.500 268.480 44.745 268.814 L 42.990 269.148 42.174 266.942 L 41.358 264.735 41.944 261.128 L 42.530 257.522 44.265 257.187 L 46 256.853 46 258.927 L 46 261 46.941 261 C 47.459 261, 48.154 260.559, 48.487 260.021 L 49.092 259.041 48.011 257.021 L 46.930 255 44.076 255 L 41.222 255 38.861 256.912 M 116 257 L 116 259 114.200 259 C 113.210 259, 111.860 259.540, 111.200 260.200 L 110 261.400 110 264.618 C 110 266.388, 110.273 268.548, 110.607 269.418 L 111.214 271 116.107 271 L 121 271 121 263 L 121 255 118.500 255 L 116 255 116 257 M 141 263 L 141 271 146.500 271 L 152 271 152 270 L 152 269 149 269 L 146 269 146 266 L 146 263 148 263 L 150 263 150 262 L 150 261 148 261 L 146 261 146 259 L 146 257 148.500 257 L 151 257 151 256 L 151 255 146 255 L 141 255 141 263 M 74.935 258.056 L 72.564 260.113 73.588 260.806 L 74.612 261.500 74.854 265.498 C 75.184 270.953, 79.342 273.481, 80.797 269.111 L 81.259 267.722 80.130 268.420 L 79 269.118 79 265.142 L 79 261.167 80.250 260.583 L 81.500 260 80.250 259.417 C 79.563 259.096, 79 258.196, 79 257.417 C 79 255.445, 77.712 255.648, 74.935 258.056 M 165.995 258.235 L 163.913 260.471 164.956 260.819 L 166 261.167 166 266.083 L 166 271 168.441 271 L 170.882 271 171.500 270 L 172.118 269 171.059 269 L 170 269 170 265.083 L 170 261.167 171.250 260.583 L 172.500 260 171.250 259.417 C 170.563 259.096, 170 258.196, 170 257.417 C 170 255.350, 168.374 255.682, 165.995 258.235 M 268.287 257.511 L 266.129 259.023 266.629 262.761 C 266.905 264.818, 267.334 267.512, 267.584 268.750 L 268.038 271 270.460 271 L 272.882 271 273.500 270 L 274.118 269 273.059 269 L 272 269 272 265 L 272 261 272.906 261 L 273.812 261 272.656 258.508 C 271.297 255.577, 271.110 255.534, 268.287 257.511 M 62 264.083 C 62 266.788, 61.982 269.337, 61.960 269.750 C 61.939 270.163, 62.839 270.644, 63.960 270.820 L 66 271.139 66 267.129 L 66 263.118 67 262.500 L 68 261.882 68 266.441 L 68 271 70.500 271 L 73 271 72.985 266.250 C 72.976 263.637, 72.635 260.975, 72.227 260.333 L 71.485 259.167 66.742 259.167 L 62 259.167 62 264.083 M 82 265.063 L 82 271 84 271 L 86 271 86 267.094 L 86 263.187 87.862 263.674 L 89.724 264.161 90.365 262.490 C 91.340 259.951, 90.407 259.241, 86.014 259.181 L 82 259.125 82 265.063 M 92.035 260.934 C 91.466 261.998, 91 264.158, 91 265.734 L 91 268.600 92.200 269.800 L 93.400 271 96.578 271 L 99.755 271 100.942 269.569 L 102.130 268.139 102.216 265.104 L 102.302 262.069 101.029 260.535 L 99.755 259 96.413 259 L 93.070 259 92.035 260.934 M 123.655 260.829 L 122 262.657 122 265.257 L 122 267.857 123.571 269.429 L 125.143 271 128.012 271 L 130.882 271 131.510 269.984 C 131.856 269.424, 132.350 267.798, 132.609 266.369 L 133.080 263.772 131.517 261.386 L 129.954 259 127.632 259 L 125.310 259 123.655 260.829 M 153 265.096 L 153 271 155 271 L 157 271 157 267.059 L 157 263.118 158 262.500 L 159 261.882 159 266.511 L 159 271.139 161.250 270.820 L 163.500 270.500 163.824 267.112 C 164.002 265.248, 163.887 262.686, 163.569 261.419 L 162.991 259.115 157.995 259.153 L 153 259.192 153 265.096 M 173 265.063 L 173 271 175 271 L 177 271 177.079 266.250 L 177.158 261.500 177.662 262.750 C 178.374 264.513, 180.669 264.304, 181.396 262.410 C 182.339 259.954, 181.371 259.241, 177.014 259.181 L 173 259.125 173 265.063 M 183.655 260.829 L 182 262.657 182 265.629 L 182 268.600 183.200 269.800 L 184.400 271 187.731 271 L 191.063 271 191.655 269.457 L 192.247 267.914 191.487 267.207 L 190.726 266.500 190.280 267.750 C 190.034 268.438, 189.196 269, 188.417 269 L 187 269 187 267.500 L 187 266 189.500 266 L 192 266 192 263.700 C 192 260.819, 190.241 259, 187.455 259 L 185.310 259 183.655 260.829 M 193.643 259.833 C 193.438 260.200, 193.322 262.750, 193.385 265.500 L 193.500 270.500 195.750 270.820 L 198 271.139 198 267.129 L 198 263.118 199 262.500 L 200 261.882 200 266.441 L 200 271 202.500 271 L 205 271 204.985 266.250 C 204.976 263.637, 204.635 260.975, 204.227 260.333 L 203.485 259.167 198.750 259.167 C 196.146 259.167, 193.847 259.467, 193.643 259.833 M 207.345 260.543 L 206.753 262.086 207.451 262.785 L 208.150 263.483 209.136 261.721 L 210.123 259.958 211.061 260.538 C 212.787 261.605, 212.027 262.795, 208.931 263.874 L 205.862 264.944 206.181 267.722 L 206.500 270.500 214.750 270.674 L 223 270.849 223.150 266.174 L 223.300 261.500 223.900 266 L 224.500 270.500 226.750 270.820 L 229 271.139 229 266.570 L 229 262 229.784 262 L 230.569 262 230.534 266.250 L 230.500 270.500 232.802 270.826 L 235.104 271.153 234.802 265.326 L 234.500 259.500 226.250 259.306 L 218 259.111 218 264.222 L 218 269.333 217.365 268.698 C 217.015 268.349, 216.586 266.464, 216.411 264.510 C 216.235 262.556, 215.820 260.517, 215.487 259.979 L 214.882 259 211.410 259 L 207.937 259 207.345 260.543 M 237 265 L 237 271.139 239.250 270.820 L 241.500 270.500 241.500 265 L 241.500 259.500 239.250 259.180 L 237 258.861 237 265 M 244.571 260.571 L 243 262.143 243 265.449 L 243 268.755 244.435 269.946 L 245.869 271.136 249.185 270.818 L 252.500 270.500 252.811 266.176 L 253.122 261.852 251.939 260.426 L 250.755 259 248.449 259 L 246.143 259 244.571 260.571 M 254.368 260.482 C 254.096 261.191, 254.015 263.735, 254.187 266.136 L 254.500 270.500 256.750 270.820 L 259 271.139 259 266.570 L 259 262 260 262 L 261 262 261 266.570 L 261 271.139 263.250 270.820 L 265.500 270.500 265.837 268.119 C 266.022 266.809, 265.894 264.248, 265.552 262.427 L 264.931 259.115 259.897 259.154 L 254.863 259.193 254.368 260.482 M 275.625 260.517 L 274 262.143 274 264.880 L 274 267.618 275.294 269.388 L 276.588 271.157 280.037 270.829 L 283.486 270.500 284.798 267.750 L 286.109 265 284.798 262.250 L 283.486 259.500 280.368 259.196 L 277.251 258.892 275.625 260.517" stroke="none" fill="#080605" fill-rule="evenodd"/><path d="M 149.713 36.135 L 144.926 36.845 137.713 42.282 C 133.746 45.273, 129.713 47.994, 128.750 48.329 L 127 48.937 127 48.028 C 127 47.527, 127.450 46.840, 128 46.500 C 128.550 46.160, 129 45.432, 129 44.882 L 129 43.882 128.022 44.486 C 127.484 44.819, 121.144 45.081, 113.934 45.069 L 100.825 45.046 97.162 46.576 C 95.148 47.418, 92.206 49.320, 90.624 50.803 L 87.747 53.500 85.383 58.500 C 84.083 61.250, 83.015 64.253, 83.010 65.173 C 83.004 66.094, 81.936 68.119, 80.637 69.673 C 79.337 71.228, 77.290 74.438, 76.087 76.807 L 73.901 81.114 72.548 89.807 C 71.803 94.588, 71.135 97.825, 71.064 97 L 70.933 95.500 68.967 97.861 L 67 100.222 67.024 102.361 C 67.037 103.537, 68.160 107.200, 69.519 110.500 C 72.342 117.352, 72.455 117.855, 70.800 116.200 C 68.853 114.253, 68.348 114.715, 65.947 120.631 L 63.662 126.262 58.186 133.881 L 52.710 141.500 52.230 145.704 L 51.750 149.908 53.987 154.204 C 55.218 156.567, 57.788 160.231, 59.698 162.348 L 63.171 166.195 66.089 172.697 C 70.708 182.992, 74.839 187.830, 75.100 183.250 L 75.199 181.500 76 184 L 76.801 186.500 76.916 181.500 L 77.031 176.500 78.098 175 L 79.165 173.500 78.622 178.101 L 78.079 182.702 79.075 186.308 L 80.070 189.914 83.005 192.003 L 85.939 194.093 91.220 195.153 L 96.500 196.213 100.358 194.856 L 104.215 193.500 104.585 188.500 L 104.955 183.500 107.089 181.750 L 109.222 180 111.861 180.076 L 114.500 180.152 111 181.409 L 107.500 182.666 107.193 185.753 L 106.885 188.840 109.913 192.170 L 112.941 195.500 112.971 194.315 C 112.987 193.663, 112.537 191.913, 111.972 190.426 C 110.026 185.308, 111.977 186.700, 114.387 192.149 L 116.801 197.606 121.150 199.412 C 123.543 200.406, 126.528 201.617, 127.784 202.103 L 130.067 202.988 130.655 201.456 L 131.243 199.925 129.624 195.712 C 128.734 193.396, 127.109 190.033, 126.012 188.241 L 124.018 184.982 120.759 182.913 L 117.500 180.845 120 181.541 C 124.012 182.657, 126.041 185.035, 129.570 192.750 L 132.886 200 134.769 200 L 136.651 200 138.826 197.686 L 141 195.371 141 191.723 L 141 188.075 138.876 182.288 L 136.751 176.500 131.081 170.914 L 125.411 165.328 120.455 163.560 L 115.500 161.792 105 161.328 L 94.500 160.863 91.734 159.804 L 88.969 158.744 83.954 152.443 L 78.940 146.141 75.970 144.826 C 72.351 143.224, 72.140 142, 75.483 142 L 77.967 142 78.233 115.750 L 78.500 89.500 79.380 93.764 L 80.260 98.029 81.630 96.892 L 83 95.755 81.348 99.627 L 79.695 103.500 79.343 116 C 79.149 122.875, 79.259 130.633, 79.588 133.239 L 80.185 137.978 82.374 141.239 L 84.564 144.500 89.532 147.227 C 94.843 150.142, 94.198 150.945, 88.468 148.551 L 85 147.102 85 147.877 C 85 149.496, 89.733 152.996, 94.028 154.554 L 98.500 156.175 111 156.692 L 123.500 157.208 126.250 156.129 L 129 155.050 129 153.896 L 129 152.742 124.250 153.314 L 119.500 153.885 115.500 153.058 L 111.500 152.230 118.203 152.115 L 124.906 152 127.295 150.912 L 129.683 149.823 129.250 122.162 L 128.817 94.500 127.486 88.506 C 125.922 81.462, 126.272 80.322, 128.420 85.464 L 129.958 89.144 130.936 88.539 C 131.475 88.207, 132.672 85.237, 133.597 81.940 C 135.969 73.486, 136.521 75.324, 134.542 85.087 C 133.627 89.605, 132.507 96.721, 132.052 100.901 L 131.227 108.500 131.923 126.500 L 132.619 144.500 134.766 148.624 L 136.912 152.748 140.206 154.857 L 143.500 156.966 141.941 156.983 C 141.084 156.992, 139.509 156.339, 138.441 155.532 C 137.374 154.724, 136.093 154.049, 135.595 154.032 L 134.690 154 136.595 156.145 C 137.643 157.325, 140.525 159.222, 143 160.361 L 147.500 162.431 157.675 162.232 L 167.851 162.032 173.171 160.266 L 178.492 158.500 178.847 156.604 L 179.203 154.708 177.547 155.344 C 176.636 155.693, 172.920 156.454, 169.290 157.034 L 162.688 158.088 161.644 157.044 L 160.600 156 166.550 155.998 L 172.500 155.997 176 154.248 L 179.500 152.500 180.754 147.500 L 182.007 142.500 182.254 116.500 L 182.500 90.500 181.732 86 L 180.964 81.500 182.334 85.606 C 183.088 87.864, 184.081 90.323, 184.543 91.069 L 185.382 92.427 186.646 89.463 C 188.324 85.530, 188.309 87.482, 186.602 95.188 L 185.205 101.500 184.431 120.500 C 184.005 130.950, 183.621 141.825, 183.578 144.667 L 183.500 149.834 185.843 153.002 L 188.185 156.169 186.093 155.050 L 184 153.930 184 154.819 C 184 155.308, 185.070 156.862, 186.377 158.273 L 188.755 160.838 192.627 161.915 L 196.500 162.993 206 161.409 L 215.500 159.825 217 158.365 L 218.500 156.905 211.500 157.417 L 204.500 157.929 209.797 156.966 C 212.710 156.436, 216.418 155.318, 218.037 154.481 L 220.980 152.959 223.091 148.822 L 225.201 144.686 226.177 130.093 L 227.154 115.500 226.827 102.724 L 226.500 89.949 227.166 91.724 C 227.533 92.701, 228.164 94.400, 228.569 95.500 L 229.306 97.500 229.081 116 L 228.857 134.500 227.342 140.500 C 226.509 143.800, 224.912 148.634, 223.794 151.243 L 221.760 155.985 223.403 158.493 L 225.046 161 224.082 161 C 223.552 161, 222.840 160.550, 222.500 160 C 222.160 159.450, 221.459 159, 220.941 159 C 219.330 159, 219.908 161.607, 221.922 163.430 L 223.845 165.169 227.918 165.716 L 231.992 166.262 236.535 164.990 L 241.078 163.718 244.789 159.499 L 248.500 155.280 253.182 143.890 C 262.268 121.787, 262.356 115.517, 253.864 95.301 L 250 86.102 250 81.598 L 250 77.094 248.915 74.712 L 247.830 72.331 245.096 70.716 L 242.362 69.101 234.820 68.165 L 227.278 67.228 224.428 65.364 L 221.577 63.500 222.348 64.750 L 223.118 66 222.309 65.985 C 221.864 65.977, 217.796 62.623, 213.268 58.530 C 208.741 54.438, 204.081 50.579, 202.913 49.954 L 200.790 48.817 191.631 48.487 C 186.594 48.305, 181.129 47.866, 179.486 47.510 L 176.500 46.864 178.427 48.422 C 179.487 49.278, 180.101 50.232, 179.792 50.541 C 179.483 50.850, 175.822 47.943, 171.657 44.081 L 164.083 37.059 161.792 36.590 C 156.694 35.547, 154.284 35.456, 149.713 36.135 M 274.554 203.663 C 268.575 205.380, 263.040 210.486, 260.077 217.018 L 258.044 221.500 258.022 228.125 C 258.010 231.769, 258.277 236.136, 258.616 237.831 L 259.232 240.911 262.724 244.990 L 266.215 249.069 270.357 251.261 L 274.500 253.454 282 253.454 L 289.500 253.454 293.500 251.314 C 297.652 249.094, 302.470 244.318, 304.916 240 L 306.331 237.500 306.798 230.240 L 307.264 222.980 305.509 218.385 L 303.754 213.790 300.729 210.344 C 299.065 208.449, 296.351 206.199, 294.698 205.344 L 291.693 203.790 284.096 203.447 C 279.918 203.259, 275.624 203.356, 274.554 203.663 M 278.229 216.669 C 277.530 216.951, 276.292 218.468, 275.479 220.041 L 274 222.901 274.004 228.200 L 274.007 233.500 275.989 236.750 L 277.971 240 281.811 240 L 285.651 240 288.076 237.419 L 290.500 234.839 290.500 228 L 290.500 221.161 288.076 218.581 L 285.651 216 282.576 216.079 C 280.884 216.122, 278.928 216.388, 278.229 216.669" stroke="none" fill="#d0ac3b" fill-rule="evenodd"/></svg>