<?xml version="1.0" standalone="no"?>
<!DOCTYPE svg PUBLIC "-//W3C//DTD SVG 20010904//EN"
 "http://www.w3.org/TR/2001/REC-SVG-20010904/DTD/svg10.dtd">
<svg version="1.0" xmlns="http://www.w3.org/2000/svg"
 width="320.000000pt" height="320.000000pt" viewBox="0 0 320.000000 320.000000"
 preserveAspectRatio="xMidYMid meet">
<metadata>
Created by potrace 1.16, written by Peter Selinger 2001-2019
</metadata>
<g transform="translate(0.000000,320.000000) scale(0.100000,-0.100000)"
fill="#000000" stroke="none">
<path d="M1375 3118 c-119 -13 -298 -55 -405 -95 -822 -306 -1170 -1120 -765
-1791 l52 -87 -48 -3 -49 -3 0 -85 0 -84 34 0 c19 0 41 -3 50 -6 16 -6 20 -1
30 49 5 20 12 27 31 27 25 0 25 0 25 -102 0 -107 -4 -120 -32 -131 -14 -5 -18
-18 -18 -62 l0 -55 140 0 140 0 0 55 c0 50 -2 56 -25 65 -25 9 -25 11 -25 120
0 110 0 111 23 108 16 -2 24 -13 31 -40 9 -37 11 -38 53 -38 l43 0 0 90 0 90
-163 0 -163 0 -52 79 c-301 456 -237 1006 163 1406 379 380 990 534 1560 395
415 -102 772 -369 944 -704 136 -266 157 -567 60 -842 -37 -105 -57 -146 -115
-236 l-43 -67 31 -6 c34 -8 29 -13 88 85 140 233 192 533 136 797 -147 691
-910 1164 -1731 1071z"/>
<path d="M1459 2900 c-19 -5 -73 -28 -120 -50 l-84 -42 -115 6 c-195 11 -273
-24 -351 -155 -88 -148 -147 -315 -174 -491 -16 -106 -43 -189 -78 -237 -109
-152 -102 -138 -102 -215 0 -63 5 -82 37 -147 39 -80 164 -237 250 -314 96
-86 146 -98 349 -81 92 8 99 8 154 -18 31 -14 66 -26 76 -26 16 0 19 -8 19
-49 0 -40 3 -50 20 -54 23 -6 28 12 -40 -159 -16 -42 -28 -58 -46 -62 -22 -6
-24 -12 -24 -61 l0 -55 95 0 95 0 0 54 c0 46 -3 56 -20 61 -11 4 -20 15 -20
26 0 18 6 20 52 17 39 -2 54 -7 56 -19 2 -11 -6 -19 -23 -23 -24 -6 -26 -10
-23 -59 l3 -52 138 -3 137 -3 0 56 c0 49 -3 57 -23 64 -17 7 -32 33 -60 103
-41 104 -44 118 -22 118 12 0 15 13 15 55 l0 55 -125 0 c-69 0 -125 3 -125 6
0 3 14 17 31 32 60 50 76 139 39 221 -11 24 -20 45 -20 46 0 6 105 24 180 30
98 7 143 22 175 56 l27 27 32 -19 c56 -33 129 -43 216 -29 68 11 81 10 110 -5
72 -37 191 -29 261 18 109 73 232 381 215 543 -8 76 -129 441 -155 467 -10 10
-61 31 -113 46 -120 35 -169 59 -244 117 -90 71 -124 84 -231 84 -91 0 -91 0
-141 39 -77 61 -129 84 -202 87 -36 2 -81 -1 -101 -6z m166 -70 c14 -5 57 -39
95 -75 38 -36 75 -65 81 -65 8 0 6 7 -5 19 -17 19 -16 19 21 10 21 -5 71 -9
112 -9 61 0 82 -4 117 -25 24 -14 47 -31 51 -38 4 -7 35 -36 69 -65 58 -50 83
-65 68 -41 -4 7 3 6 17 -2 13 -7 62 -18 108 -25 109 -17 126 -32 136 -121 4
-40 22 -101 46 -159 77 -185 75 -272 -12 -473 -77 -180 -113 -214 -227 -215
-50 0 -67 4 -84 21 -25 26 -15 52 11 29 22 -20 35 -9 15 12 -19 18 -15 53 17
137 19 51 23 88 29 260 4 110 11 209 15 219 6 13 5 17 -2 13 -7 -5 -16 8 -23
30 -19 60 -28 59 -17 -1 7 -36 7 -131 0 -278 -8 -199 -12 -229 -31 -270 -26
-53 -62 -75 -147 -88 l-60 -9 79 4 c94 4 90 -9 -10 -30 -102 -22 -175 -20
-208 6 -14 11 -31 30 -38 42 -10 20 -10 21 6 8 27 -22 32 -3 6 24 -21 22 -23
33 -21 116 1 50 3 95 6 99 3 4 7 81 10 171 2 102 10 185 19 219 18 64 19 73 7
66 -4 -3 -11 -19 -15 -36 -8 -42 -21 -31 -37 30 -7 28 -16 50 -21 50 -11 0
-10 -7 8 -75 13 -50 15 -94 10 -270 -12 -381 -17 -393 -155 -402 -44 -3 -81
-10 -81 -14 0 -13 66 -11 138 5 65 13 74 10 44 -17 -61 -55 -330 -48 -394 10
-30 27 -20 32 22 10 47 -22 67 -16 22 7 -45 23 -79 70 -91 126 -6 28 -11 137
-11 243 0 165 4 209 25 312 13 66 25 125 24 130 0 21 -28 -42 -39 -88 -15 -61
-26 -66 -45 -21 -23 56 -27 37 -9 -47 12 -56 15 -106 10 -204 -3 -71 0 -186 5
-254 13 -154 13 -154 -104 -160 -97 -5 -72 -18 37 -20 56 -1 67 -3 57 -13 -16
-17 -235 -16 -310 0 -54 12 -111 45 -111 63 0 6 4 8 8 5 13 -8 92 -25 92 -20
0 3 -19 13 -42 23 -49 21 -96 64 -110 101 -5 13 -10 95 -10 180 0 137 2 162
20 203 20 46 18 59 -6 35 -9 -9 -12 1 -12 45 0 31 -4 57 -10 57 -6 0 -10 -100
-10 -279 l0 -280 -32 -3 -33 -3 41 -23 c22 -13 60 -48 83 -78 64 -82 74 -87
219 -94 109 -6 134 -10 177 -32 91 -47 160 -146 172 -247 5 -44 3 -52 -20 -75
-14 -14 -33 -26 -40 -26 -8 0 -31 35 -53 81 -44 92 -65 108 -153 116 -76 6
-93 -7 -99 -80 -5 -65 -13 -70 -98 -69 -59 0 -103 20 -134 59 -19 24 -21 38
-18 91 2 34 1 62 -3 62 -11 0 -19 -28 -20 -73 -1 -30 -3 -35 -7 -17 l-5 25 -6
-24 -7 -25 -22 24 c-12 13 -38 57 -57 97 -19 40 -55 97 -79 128 -64 78 -81
147 -48 196 9 14 36 54 59 88 23 34 51 86 64 116 23 57 33 66 43 40 3 -8 10
-15 15 -15 6 0 -2 26 -16 58 -31 69 -35 125 -10 149 16 16 17 16 17 -2 0 -11
5 -27 11 -35 8 -11 9 -5 6 25 -10 94 28 232 78 285 13 14 28 44 33 68 14 62
54 117 109 149 46 27 53 28 197 29 147 2 149 1 125 -17 -20 -16 -21 -19 -6
-19 25 0 66 23 118 66 24 20 58 43 74 50 36 16 133 18 170 4z m-408 -1466 c24
-15 75 -108 87 -158 7 -27 6 -28 -21 -23 -15 3 -49 14 -74 25 -38 16 -47 26
-57 59 -6 22 -21 48 -32 58 -24 22 -25 18 -5 -28 20 -48 19 -54 -4 -33 -25 23
-45 71 -37 91 13 36 94 41 143 9z"/>
<path d="M690 1085 c0 -42 4 -55 15 -55 24 0 35 -35 35 -114 0 -87 -5 -106
-31 -106 -17 0 -19 -8 -19 -60 l0 -60 135 0 135 0 0 56 c0 47 -3 57 -20 61
-29 8 -29 73 0 73 27 0 40 -29 40 -90 0 -44 5 -56 29 -81 24 -24 38 -29 76
-29 55 0 110 21 124 48 17 32 14 132 -3 132 -11 0 -16 -14 -18 -47 -4 -59 -23
-67 -32 -12 -9 56 -22 78 -54 91 -25 11 -25 12 -6 15 35 6 66 48 71 95 6 57
-9 94 -49 118 -30 18 -51 20 -230 20 l-198 0 0 -55z"/>
<path d="M1750 1087 c0 -45 3 -54 23 -62 20 -9 22 -17 25 -108 3 -96 2 -97
-23 -107 -23 -9 -25 -15 -25 -65 l0 -55 140 0 140 0 0 55 c0 50 -2 56 -25 65
-24 9 -25 12 -25 110 0 98 1 101 25 110 22 8 25 15 25 60 l0 50 -140 0 -140 0
0 -53z"/>
<path d="M2060 1087 c0 -45 3 -54 23 -62 20 -9 22 -17 25 -108 3 -96 2 -97
-23 -107 -23 -9 -25 -15 -25 -65 l0 -55 105 0 106 0 -3 58 c-3 50 -6 57 -25
60 -21 3 -23 9 -23 64 0 34 3 58 8 54 4 -4 39 -58 78 -119 l70 -112 92 -3 92
-3 0 155 c0 85 3 161 6 170 3 9 15 16 25 16 16 0 19 8 19 55 l0 55 -100 0
-100 0 0 -54 c0 -45 3 -54 20 -59 17 -4 20 -13 20 -64 l-1 -58 -32 50 c-17 28
-51 81 -75 118 l-42 67 -120 0 -120 0 0 -53z"/>
</g>
</svg>
